<?xml version="1.0" encoding="utf-8"?>
<!-- Generator: Adobe Illustrator 16.0.0, SVG Export Plug-In . SVG Version: 6.00 Build 0)  -->
<!DOCTYPE svg PUBLIC "-//W3C//DTD SVG 1.1//EN" "http://www.w3.org/Graphics/SVG/1.1/DTD/svg11.dtd">
<svg version="1.1" xmlns="http://www.w3.org/2000/svg" xmlns:xlink="http://www.w3.org/1999/xlink" x="0px" y="0px" width="500px"
	 height="500px" viewBox="0 0 500 500" enable-background="new 0 0 500 500" xml:space="preserve">
<g id="Layer_1" display="none">
	<g display="inline">
		<path fill="#363946" d="M233.318,314.284V500H115.086V0h195.718c43.654,0,77.06,4.704,100.224,14.103
			c23.155,9.404,43.836,26.19,62.023,50.366c18.19,24.176,27.285,53.846,27.285,89.011c0,24.668-4.854,48.719-14.551,72.162
			c-9.703,23.442-23.406,41.884-41.109,55.312c-17.705,13.431-34.865,22.345-51.476,26.739c-16.614,4.396-42.624,6.592-78.031,6.592
			H233.318z M229.315,223.443h75.667c28.859,0,49.112-6.712,60.753-20.146c11.641-13.428,17.46-28.811,17.46-46.153
			c0-20.268-6.489-36.384-19.461-48.353c-12.979-11.962-32.684-17.949-59.116-17.949h-75.303V223.443z"/>
	</g>
	<g display="inline">
		<path fill="#6C9A8B" d="M386.08,0v500H271.062V293.772H115.019V500H0V0h115.019v194.871h156.043V0H386.08z"/>
	</g>
	<rect x="385.75" y="385.75" fill="#5B2E48" width="114.25" height="114.25"/>
	<circle display="inline" fill="#5B2E48" cx="443.027" cy="443.027" r="56.973"/>
</g>
<g id="Layer_2">
	<g>
		<path fill="#363946" d="M233.15,314.284V500H114.917V0h195.717c43.654,0,77.061,4.704,100.225,14.103
			c23.154,9.404,43.836,26.19,62.023,50.366c18.189,24.176,27.285,53.846,27.285,89.011c0,24.668-4.855,48.719-14.551,72.162
			c-9.703,23.442-23.406,41.884-41.109,55.312c-17.705,13.431-34.865,22.345-51.477,26.739c-16.613,4.396-42.623,6.592-78.031,6.592
			H233.15 M229.147,223.443h75.667c28.859,0,49.111-6.713,60.752-20.146c11.641-13.428,17.461-28.811,17.461-46.153
			c0-20.268-6.49-36.384-19.461-48.353c-12.979-11.962-32.684-17.949-59.117-17.949h-75.302V223.443"/>
		<path fill="#6C9A8B" d="M385.912,309.328c-16.571,3.305-40.209,4.956-70.912,4.956h-44.107V500h115.02V309.328 M304.449,90.842
			h-33.557v104.029h-41.746v28.572h75.667c28.859,0,49.111-6.713,60.752-20.146c11.641-13.428,17.461-28.811,17.461-46.153
			c0-20.268-6.49-36.384-19.461-48.353C350.588,96.829,330.883,90.842,304.449,90.842 M114.85,0H-0.168v500H114.85V293.772h0.067
			v-98.901h-0.067V0 M385.912,0h-115.02h39.742c29.9,0,54.99,2.206,75.277,6.617V0"/>
		<path fill="#5D8F99" d="M310.635,0h-39.742v90.842h33.557c26.434,0,46.139,5.987,59.117,17.949
			c12.971,11.968,19.461,28.085,19.461,48.353c0,17.342-5.82,32.725-17.461,46.153c-11.641,13.434-31.893,20.146-60.752,20.146
			h-75.667v-28.572H114.917v98.901h155.975v20.512H315c30.703,0,54.341-1.651,70.912-4.956V6.617C365.625,2.206,340.535,0,310.635,0
			"/>
		<circle fill="#5B2E48" cx="442.859" cy="443.027" r="56.973"/>
	</g>
</g>
</svg>
