<?xml version="1.0" standalone="no"?>
<!DOCTYPE svg PUBLIC "-//W3C//DTD SVG 20010904//EN"
 "http://www.w3.org/TR/2001/REC-SVG-20010904/DTD/svg10.dtd">
<svg version="1.0" xmlns="http://www.w3.org/2000/svg"
 width="700.000000pt" height="700.000000pt" viewBox="0 0 700.000000 700.000000"
 preserveAspectRatio="xMidYMid meet">
<metadata>
Created by potrace 1.11, written by Peter Selinger 2001-2013
</metadata>
<g transform="translate(0.000000,700.000000) scale(0.100000,-0.100000)"
fill="#000000" stroke="none">
<path d="M0 3500 l0 -3500 1633 0 1632 0 0 1300 0 1300 262 0 c244 0 263 -1
264 -17 0 -10 0 -595 1 -1301 l0 -1282 806 2 806 3 -1 355 0 355 18 -81 c65
-301 288 -532 586 -608 113 -29 280 -30 387 -2 268 70 479 269 566 533 25 77
32 123 34 233 12 436 -347 801 -789 802 -336 1 -619 -190 -746 -503 -31 -75
-37 -98 -38 -136 -1 -13 -5 -23 -9 -23 -5 0 -9 391 -9 869 l0 869 86 22 c181
47 376 137 566 261 159 103 226 158 351 284 205 208 367 491 468 815 15 47 31
99 37 117 12 39 13 42 39 171 11 57 23 124 25 150 3 26 8 58 11 72 11 48 13
475 3 565 -45 402 -183 741 -426 1045 -302 377 -645 607 -1068 715 l-90 23 -1
34 c-1 18 -2 39 -3 45 -1 10 -562 13 -2701 13 l-2700 0 0 -3500z m3792 1540
c-1 -377 -1 -704 -1 -727 l-1 -42 -290 -1 -290 0 0 730 0 730 291 -2 291 -3 0
-685z m1615 -4152 c-3 -7 -5 -2 -5 12 0 14 2 19 5 13 2 -7 2 -19 0 -25z"/>
</g>
</svg>
